<svg xmlns="http://www.w3.org/2000/svg" width="2048" height="508" viewBox="0 0 2048 508">
<g>
<path d="M 1091.03 242.00 L 1090.50 312.50 L 1024.25 312.76 C969.00,312.97 958.00,312.79 958.00,311.66 C958.00,307.22 969.34,296.38 978.64,291.94 L 984.79 289.00 L 1068.00 289.00 L 1068.00 265.00 L 964.00 265.00 L 964.00 196.00 L 1027.50 196.00 C1070.79,196.00 1091.00,196.33 1091.00,197.04 C1091.00,201.94 1081.59,212.15 1073.12,216.44 L 1068.07 219.00 L 987.00 219.00 L 987.00 242.00 ZM 287.00 220.00 L 287.00 313.00 L 276.17 313.00 C270.21,313.00 265.03,312.70 264.67,312.33 C264.30,311.97 264.00,291.07 264.00,265.89 L 264.00 220.12 L 244.25 219.81 C226.08,219.52 224.13,219.32 219.88,217.23 C213.65,214.15 207.20,207.62 204.37,201.53 L 202.04 196.50 L 275.18 196.24 C315.41,196.10 348.55,196.22 348.83,196.50 C349.11,196.78 348.27,199.28 346.97,202.06 C344.10,208.19 337.68,214.31 330.69,217.56 C325.77,219.85 324.50,219.98 306.25,219.99 ZM 1739.04 266.00 L 1738.50 312.50 L 1716.00 313.07 L 1716.00 242.00 L 1843.00 242.00 L 1843.00 313.00 L 1821.00 313.00 L 1821.00 266.00 ZM 1465.05 310.18 L 1460.61 313.00 L 1356.00 313.00 L 1356.00 196.00 L 1379.00 196.00 L 1379.00 290.00 L 1480.13 290.00 L 1479.44 292.25 C1477.36,298.98 1471.84,305.86 1465.05,310.18 ZM 699.27 311.42 C695.34,312.76 688.12,313.00 651.07,312.99 L 607.50 312.98 L 602.33 310.57 C595.90,307.58 589.43,301.06 586.37,294.50 L 584.04 289.50 L 617.45 289.24 C635.82,289.09 666.21,289.09 684.97,289.24 L 719.09 289.50 L 715.98 295.72 C712.30,303.08 705.79,309.20 699.27,311.42 ZM 1826.27 218.42 C1819.73,220.65 1738.67,220.65 1732.59,218.43 C1728.28,216.85 1722.75,212.98 1719.19,209.05 C1717.11,206.75 1712.00,197.86 1712.00,196.53 C1712.00,196.24 1742.15,196.00 1779.00,196.00 C1831.94,196.00 1846.00,196.26 1845.99,197.25 C1845.97,199.92 1839.89,208.92 1835.50,212.79 C1832.96,215.02 1828.81,217.56 1826.27,218.42 ZM 699.80 264.01 C695.74,265.85 693.09,265.95 652.50,265.89 C628.02,265.85 608.05,265.40 606.14,264.85 C601.11,263.41 595.82,259.74 591.22,254.51 C587.48,250.26 584.14,243.52 585.24,242.43 C585.48,242.18 615.70,242.10 652.39,242.24 L 719.09 242.50 L 716.01 248.65 C712.67,255.34 706.95,260.76 699.80,264.01 ZM 705.10 214.90 L 699.68 218.50 L 652.59 218.75 L 605.50 219.01 L 601.00 216.44 C598.53,215.02 595.00,212.43 593.16,210.68 C590.01,207.68 585.00,199.30 585.00,197.03 C585.00,196.33 606.57,196.00 652.01,196.00 L 719.03 196.00 L 717.47 199.75 C714.79,206.18 710.73,211.16 705.10,214.90 Z" fill="rgb(0,0,0)"/>
<path d="M 0.00 254.00 L 0.00 0.00 L 1024.00 0.00 L 2048.00 0.00 L 2048.00 254.00 L 2048.00 508.00 L 1024.00 508.00 L 0.00 508.00 L 0.00 254.00 ZM 287.00 266.50 L 287.00 220.00 L 306.25 219.99 C324.50,219.98 325.77,219.85 330.69,217.56 C337.68,214.31 344.10,208.19 346.97,202.06 C348.27,199.28 349.11,196.78 348.83,196.50 C348.55,196.22 315.41,196.10 275.18,196.24 L 202.04 196.50 L 204.37 201.53 C207.20,207.62 213.65,214.15 219.88,217.23 C224.13,219.32 226.08,219.52 244.25,219.81 L 264.00 220.12 L 264.00 265.89 C264.00,291.07 264.30,311.97 264.67,312.33 C265.03,312.70 270.21,313.00 276.17,313.00 L 287.00 313.00 L 287.00 266.50 ZM 699.27 311.42 C705.79,309.20 712.30,303.08 715.98,295.72 L 719.09 289.50 L 684.97 289.24 C666.21,289.09 635.82,289.09 617.45,289.24 L 584.04 289.50 L 586.37 294.50 C589.43,301.06 595.90,307.58 602.33,310.57 L 607.50 312.98 L 651.07 312.99 C688.12,313.00 695.34,312.76 699.27,311.42 ZM 1090.76 277.25 L 1091.03 242.00 L 1039.01 242.00 L 987.00 242.00 L 987.00 230.50 L 987.00 219.00 L 1027.53 219.00 L 1068.07 219.00 L 1073.12 216.44 C1081.59,212.15 1091.00,201.94 1091.00,197.04 C1091.00,196.33 1070.79,196.00 1027.50,196.00 L 964.00 196.00 L 964.00 230.50 L 964.00 265.00 L 1016.00 265.00 L 1068.00 265.00 L 1068.00 277.00 L 1068.00 289.00 L 1026.39 289.00 L 984.79 289.00 L 978.64 291.94 C969.34,296.38 958.00,307.22 958.00,311.66 C958.00,312.79 969.00,312.97 1024.25,312.76 L 1090.50 312.50 L 1090.76 277.25 ZM 1465.05 310.18 C1471.84,305.86 1477.36,298.98 1479.44,292.25 L 1480.13 290.00 L 1429.57 290.00 L 1379.00 290.00 L 1379.00 243.00 L 1379.00 196.00 L 1367.50 196.00 L 1356.00 196.00 L 1356.00 254.50 L 1356.00 313.00 L 1408.30 313.00 L 1460.61 313.00 L 1465.05 310.18 ZM 1738.77 289.25 L 1739.04 266.00 L 1780.02 266.00 L 1821.00 266.00 L 1821.00 289.50 L 1821.00 313.00 L 1832.00 313.00 L 1843.00 313.00 L 1843.00 277.50 L 1843.00 242.00 L 1779.50 242.00 L 1716.00 242.00 L 1716.00 277.53 L 1716.00 313.07 L 1727.25 312.78 L 1738.50 312.50 L 1738.77 289.25 ZM 699.80 264.01 C706.95,260.76 712.67,255.34 716.01,248.65 L 719.09 242.50 L 652.39 242.24 C615.70,242.10 585.48,242.18 585.24,242.43 C584.14,243.52 587.48,250.26 591.22,254.51 C595.82,259.74 601.11,263.41 606.14,264.85 C608.05,265.40 628.02,265.85 652.50,265.89 C693.09,265.95 695.74,265.85 699.80,264.01 ZM 1826.27 218.42 C1828.81,217.56 1832.96,215.02 1835.50,212.79 C1839.89,208.92 1845.97,199.92 1845.99,197.25 C1846.00,196.26 1831.94,196.00 1779.00,196.00 C1742.15,196.00 1712.00,196.24 1712.00,196.53 C1712.00,197.86 1717.11,206.75 1719.19,209.05 C1722.75,212.98 1728.28,216.85 1732.59,218.43 C1738.67,220.65 1819.73,220.65 1826.27,218.42 ZM 705.10 214.90 C710.73,211.16 714.79,206.18 717.47,199.75 L 719.03 196.00 L 652.01 196.00 C606.57,196.00 585.00,196.33 585.00,197.03 C585.00,199.30 590.01,207.68 593.16,210.68 C595.00,212.43 598.53,215.02 601.00,216.44 L 605.50 219.01 L 652.59 218.75 L 699.68 218.50 L 705.10 214.90 Z" fill="rgb(254,254,254)"/>
</g>
</svg>