<svg xmlns="http://www.w3.org/2000/svg" width="1043" height="1006" viewBox="0 0 1043 1006">
<g>
<path d="M 529.33 818.50 C525.66,839.40 522.39,856.82 522.06,857.22 C521.73,857.62 519.55,847.27 517.21,834.22 C514.88,821.17 506.67,775.40 498.97,732.50 C481.89,637.32 454.11,482.30 437.59,390.00 L 425.32 321.50 L 400.91 321.60 C337.73,321.85 310.83,332.58 303.36,360.50 C302.63,363.25 302.02,366.74 302.01,368.25 C302.01,369.76 301.44,371.00 300.76,371.00 C300.08,371.00 293.20,367.87 285.46,364.05 C254.98,348.99 227.38,327.30 211.99,306.31 C211.67,305.87 211.36,305.48 211.09,305.13 C210.28,304.11 209.73,303.41 209.77,302.74 C209.88,301.00 214.07,299.53 228.58,293.48 C278.16,272.84 333.91,257.68 390.00,249.60 C409.56,246.78 437.40,244.00 446.06,244.00 L 451.75 244.00 L 486.59 286.50 C505.75,309.88 521.66,328.97 521.96,328.94 C522.26,328.90 538.03,309.89 557.01,286.69 L 591.53 244.50 L 596.87 244.19 C603.37,243.82 631.40,246.38 650.50,249.09 C697.45,255.75 750.12,268.77 790.30,283.63 C803.92,288.67 832.88,300.59 833.90,301.57 C834.60,302.25 829.25,309.65 822.31,317.60 C808.59,333.34 784.03,351.27 759.11,363.75 C751.14,367.74 744.11,371.00 743.49,371.00 C742.87,371.00 741.77,368.01 741.05,364.36 C739.27,355.44 733.97,345.15 728.57,340.17 C720.41,332.65 707.52,327.59 688.63,324.51 C676.02,322.45 647.91,320.81 631.53,321.18 L 617.57 321.50 L 605.86 387.50 C593.59,456.66 576.04,555.42 550.94,696.50 C542.72,742.70 532.99,797.60 529.33,818.50 ZM 207.98 279.51 C203.49,281.43 199.42,283.00 198.93,283.00 C198.45,283.00 197.38,281.99 196.58,280.75 C194.17,277.07 180.18,247.66 179.82,245.56 C179.55,243.90 181.59,242.82 193.50,238.29 C224.69,226.43 265.85,213.57 299.63,205.11 C396.86,180.77 499.16,172.29 596.00,180.53 C672.06,187.01 745.89,202.40 818.00,226.79 C848.53,237.12 864.00,243.11 864.00,244.60 C864.00,248.21 846.79,283.00 845.00,283.00 C844.55,283.00 840.51,281.43 836.02,279.51 C782.31,256.52 714.44,237.49 652.50,228.06 C608.97,221.43 579.50,219.50 522.00,219.50 C464.50,219.50 435.03,221.43 391.50,228.06 C329.76,237.46 261.52,256.59 207.98,279.51 Z" fill="rgb(83,86,91)"/>
<path d="M 0.00 503.00 L 0.00 0.00 L 521.50 0.00 L 1043.00 0.00 L 1043.00 503.00 L 1043.00 1006.00 L 521.50 1006.00 L 0.00 1006.00 L 0.00 503.00 ZM 529.33 818.50 C532.99,797.60 542.72,742.70 550.94,696.50 C576.04,555.42 593.59,456.66 605.86,387.50 L 617.57 321.50 L 631.53 321.18 C647.91,320.81 676.02,322.45 688.63,324.51 C707.52,327.59 720.41,332.65 728.57,340.17 C733.97,345.15 739.27,355.44 741.05,364.36 C741.77,368.01 742.87,371.00 743.49,371.00 C744.11,371.00 751.14,367.74 759.11,363.75 C784.03,351.27 808.59,333.34 822.31,317.60 C829.25,309.65 834.60,302.25 833.90,301.57 C832.88,300.59 803.92,288.67 790.30,283.63 C750.12,268.77 697.45,255.75 650.50,249.09 C631.40,246.38 603.37,243.82 596.87,244.19 L 591.53 244.50 L 557.01 286.69 C538.03,309.89 522.26,328.90 521.96,328.94 C521.66,328.97 505.75,309.88 486.59,286.50 L 451.75 244.00 L 446.06 244.00 C437.40,244.00 409.56,246.78 390.00,249.60 C333.91,257.68 278.16,272.84 228.58,293.48 C206.58,302.64 208.32,301.30 211.99,306.31 C227.38,327.30 254.98,348.99 285.46,364.05 C293.20,367.87 300.08,371.00 300.76,371.00 C301.44,371.00 302.01,369.76 302.01,368.25 C302.02,366.74 302.63,363.25 303.36,360.50 C310.83,332.58 337.73,321.85 400.91,321.60 L 425.32 321.50 L 437.59 390.00 C454.11,482.30 481.89,637.32 498.97,732.50 C506.67,775.40 514.88,821.17 517.21,834.22 C519.55,847.27 521.73,857.62 522.06,857.22 C522.39,856.82 525.66,839.40 529.33,818.50 ZM 207.98 279.51 C261.52,256.59 329.76,237.46 391.50,228.06 C435.03,221.43 464.50,219.50 522.00,219.50 C579.50,219.50 608.97,221.43 652.50,228.06 C714.44,237.49 782.31,256.52 836.02,279.51 C840.51,281.43 844.55,283.00 845.00,283.00 C846.79,283.00 864.00,248.21 864.00,244.60 C864.00,243.11 848.53,237.12 818.00,226.79 C745.89,202.40 672.06,187.01 596.00,180.53 C499.16,172.29 396.86,180.77 299.63,205.11 C265.85,213.57 224.69,226.43 193.50,238.29 C181.59,242.82 179.55,243.90 179.82,245.56 C180.18,247.66 194.17,277.07 196.58,280.75 C197.38,281.99 198.45,283.00 198.93,283.00 C199.42,283.00 203.49,281.43 207.98,279.51 Z" fill="rgb(254,254,254)"/>
</g>
</svg>